<?xml version="1.0" encoding="UTF-8" standalone="no"?>
<!-- Created with Inkscape (http://www.inkscape.org/) -->

<svg
   width="33.84639"
   height="32.957973"
   viewBox="0 0 8.9551905 8.7201304"
   version="1.1"
   id="svg5"
   sodipodi:docname="logo.svg"
   inkscape:version="1.2.2 (732a01da63, 2022-12-09)"
   inkscape:export-filename="logo.svg"
   inkscape:export-xdpi="96"
   inkscape:export-ydpi="96"
   xmlns:inkscape="http://www.inkscape.org/namespaces/inkscape"
   xmlns:sodipodi="http://sodipodi.sourceforge.net/DTD/sodipodi-0.dtd"
   xmlns="http://www.w3.org/2000/svg"
   xmlns:svg="http://www.w3.org/2000/svg">
  <sodipodi:namedview
     id="namedview7"
     pagecolor="#ffffff"
     bordercolor="#000000"
     borderopacity="0.25"
     inkscape:showpageshadow="2"
     inkscape:pageopacity="0.0"
     inkscape:pagecheckerboard="0"
     inkscape:deskcolor="#d1d1d1"
     inkscape:document-units="mm"
     showgrid="false"
     inkscape:zoom="12.381356"
     inkscape:cx="62.997946"
     inkscape:cy="24.472279"
     inkscape:window-width="1920"
     inkscape:window-height="1009"
     inkscape:window-x="-8"
     inkscape:window-y="-8"
     inkscape:window-maximized="1"
     inkscape:current-layer="layer1" />
  <defs
     id="defs2" />
  <g
     inkscape:label="Layer 1"
     inkscape:groupmode="layer"
     id="layer1"
     transform="translate(-0.15958525,-0.22369325)">
    <path
       id="path2409"
       style="fill:none;stroke:#000000;stroke-width:0.0986075;stroke-linecap:round;stroke-linejoin:round"
       d="M 9.0654726,4.5837564 A 4.4282918,4.3107591 0 0 1 4.6371808,8.8945155 4.4282918,4.3107591 0 0 1 0.20888901,4.5837564 4.4282918,4.3107591 0 0 1 4.6371808,0.27299738 4.4282918,4.3107591 0 0 1 9.0654726,4.5837564 Z"
       inkscape:export-filename="..\..\Documents\genesys\frontend\public\favicon.png"
       inkscape:export-xdpi="96"
       inkscape:export-ydpi="96" />
    <path
       id="path2411"
       style="fill:none;stroke:#000000;stroke-width:0.085;stroke-linecap:round;stroke-linejoin:round"
       d="M 4.7867673,4.5837564 A 0.14958647,0.14958647 0 0 1 4.6371808,4.7333429 0.14958647,0.14958647 0 0 1 4.4875943,4.5837564 0.14958647,0.14958647 0 0 1 4.6371808,4.43417 0.14958647,0.14958647 0 0 1 4.7867673,4.5837564 Z" />
    <g
       id="g2485">
      <path
         d="m 9.06547,4.58376 c 0,1.14328 -0.46655,2.23974 -1.29701,3.04816 C 7.76156,7.63863 7.75465,7.64532 7.74771,7.65198 6.91929,8.44786 5.80189,8.89452 4.63718,8.89452 v 0 C 3.42509,8.89452 2.32674,8.42046 1.52711,7.65242 0.713691,6.87115 0.209382,5.78566 0.208889,4.58552 V 4.58376 c 0,-2.38077 1.982611,-4.310763 4.428291,-4.310763 v 0 c 2.44568,0 4.42829,1.929993 4.42829,4.310763 z"
         style="fill:none;stroke:#000000;stroke-width:0.0986075;stroke-linecap:round;stroke-linejoin:round"
         id="path2443" />
      <path
         d="m 8.90692,4.58376 c 0,1.10236 -0.44983,2.15958 -1.25053,2.93908 C 7.64974,7.52932 7.64306,7.53577 7.63637,7.5422 6.8376,8.30962 5.7602,8.74032 4.63718,8.74032 h -3e-5 C 3.46851,8.74031 2.40947,8.28324 1.63844,7.54263 0.854123,6.78926 0.367918,5.74259 0.367444,4.58545 c 0,-5.8e-4 0,-0.00115 0,-0.00173 C 0.367463,2.28813 2.27908,0.427197 4.63718,0.427197 h 4e-5 c 2.35809,1.9e-5 4.2697,1.860963 4.2697,4.156563 z"
         style="fill:none;stroke:#000000;stroke-width:0.0986075;stroke-linecap:round;stroke-linejoin:round"
         id="path2445" />
      <path
         d="M 8.7256,4.58376 C 8.7256,5.63933 8.2949,6.65167 7.52824,7.3981 7.52186,7.40431 7.51546,7.4105 7.50904,7.41667 6.74419,8.15155 5.71252,8.56398 4.63718,8.56398 h -7e-5 C 3.51817,8.56396 2.50407,8.12631 1.76575,7.41707 1.01471,6.69563 0.549212,5.69334 0.548759,4.58538 c 0,-5.7e-4 0,-0.00114 0,-0.0017 C 0.5488,2.3855 2.37923,0.603531 4.63718,0.603531 h 8e-5 C 6.8952,0.603573 8.7256,2.38556 8.7256,4.58376 Z"
         style="fill:none;stroke:#000000;stroke-width:0.0986075;stroke-linecap:round;stroke-linejoin:round"
         id="path2447" />
      <path
         d="m 8.53457,4.58376 c 0,1.00627 -0.41055,1.97133 -1.14136,2.68291 C 7.38712,7.2726 7.38101,7.27851 7.37488,7.2844 6.64577,7.98501 5.66229,8.3782 4.63718,8.3782 H 4.63707 C 3.57049,8.37817 2.60375,7.96098 1.89988,7.28479 1.18391,6.59697 0.740221,5.64145 0.739789,4.5853 c 0,-5.6e-4 0,-0.00111 0,-0.00166 C 0.739854,2.48808 2.48475,0.789314 4.63718,0.789314 h 1.2e-4 c 2.15242,6.5e-5 3.89727,1.698866 3.89727,3.794446 z"
         style="fill:none;stroke:#000000;stroke-width:0.0986075;stroke-linecap:round;stroke-linejoin:round"
         id="path2449" />
      <path
         d="m 8.33695,4.58376 c 0,0.95527 -0.38972,1.87141 -1.08342,2.54694 C 7.24774,7.13635 7.24193,7.14197 7.2361,7.14757 6.54395,7.81271 5.61033,8.186 4.63718,8.186 H 4.63702 C 3.62461,8.18596 2.70686,7.78994 2.03864,7.14794 1.35895,6.49491 0.937824,5.58777 0.937416,4.58522 c 0,-5.5e-4 0,-0.00109 0,-0.00163 C 0.937505,2.5942 2.59391,0.981512 4.63718,0.981512 h 1.7e-4 c 2.04324,8.9e-5 3.6996,1.612838 3.6996,3.602248 z"
         style="fill:none;stroke:#000000;stroke-width:0.0986075;stroke-linecap:round;stroke-linejoin:round"
         id="path2451" />
      <path
         d="m 8.13427,4.58376 c 0,0.90296 -0.36834,1.76894 -1.02399,2.4075 C 7.10479,6.99661 7.09929,7.00193 7.09377,7.00724 6.43953,7.63601 5.55704,7.98889 4.63718,7.98889 h -2e-4 C 3.68012,7.98883 2.81261,7.61453 2.18096,7.00759 1.53846,6.39024 1.14048,5.53272 1.1401,4.58513 c 0,-5.3e-4 0,-0.00106 0,-0.00158 1.1e-4,-1.88051 1.56576,-3.40492 3.49708,-3.40492 h 2.1e-4 c 1.93129,1.1e-4 3.49688,1.52459 3.49688,3.40513 z"
         style="fill:none;stroke:#000000;stroke-width:0.0986075;stroke-linecap:round;stroke-linejoin:round"
         id="path2453" />
      <path
         d="m 7.92746,4.58376 c 0,0.84959 -0.34652,1.66439 -0.96335,2.26522 C 6.95893,6.85403 6.95374,6.85905 6.94854,6.86406 6.33299,7.45571 5.50266,7.78777 4.63718,7.78777 H 4.63693 C 3.73676,7.7877 2.92052,7.43555 2.32616,6.86438 1.72163,6.28344 1.34726,5.47654 1.3469,4.58505 c 0,-5.2e-4 0,-0.00103 0,-0.00155 1.4e-4,-1.76941 1.47319,-3.20375 3.29028,-3.20375 h 2.6e-4 c 1.81705,1.4e-4 3.29002,1.43457 3.29002,3.20401 z"
         style="fill:none;stroke:#000000;stroke-width:0.0986075;stroke-linecap:round;stroke-linejoin:round"
         id="path2455" />
      <path
         d="m 7.71717,4.58376 c 0,0.79532 -0.32434,1.55807 -0.9017,2.12054 C 6.81062,6.70904 6.80574,6.71376 6.80086,6.71846 6.22464,7.27238 5.44737,7.58325 4.63718,7.58325 H 4.63689 C 3.79435,7.58317 3.03024,7.25354 2.47382,6.71876 1.90789,6.17484 1.55753,5.41942 1.55719,4.58496 c 0,-5e-4 0,-0.00101 0,-0.00151 1.7e-4,-1.65643 1.37906,-2.99919 3.07999,-2.99919 h 3.1e-4 c 1.70089,1.7e-4 3.07968,1.34302 3.07968,2.9995 z"
         style="fill:none;stroke:#000000;stroke-width:0.0986075;stroke-linecap:round;stroke-linejoin:round"
         id="path2457" />
      <path
         d="M 7.50384,4.58376 C 7.50384,5.32402 7.202,6.03398 6.66469,6.55753 6.66016,6.56196 6.65561,6.56636 6.65104,6.57075 6.11474,7.08639 5.39128,7.37578 4.63718,7.37578 H 4.63684 C 3.85278,7.37569 3.14155,7.06891 2.62361,6.57103 2.09683,6.06467 1.77083,5.36147 1.77052,4.58487 c 0,-4.9e-4 0,-9.8e-4 0,-0.00147 1.9e-4,-1.54183 1.28357,-2.79167 2.86666,-2.79167 h 3.5e-4 c 1.58305,1.9e-4 2.86631,1.25015 2.86631,2.79203 z"
         style="fill:none;stroke:#000000;stroke-width:0.0986075;stroke-linecap:round;stroke-linejoin:round"
         id="path2459" />
      <path
         d="m 7.28782,4.58376 c 0,0.68451 -0.27906,1.341 -0.77581,1.82515 C 6.5078,6.41302 6.50358,6.41711 6.49934,6.42119 6.00344,6.89806 5.33448,7.1657 4.63718,7.1657 H 4.63679 C 3.91194,7.16559 3.25426,6.88196 2.77529,6.42145 2.28816,5.95311 1.98683,5.3028 1.98654,4.58478 c 0,-4.7e-4 0,-9.5e-4 0,-0.00143 2.2e-4,-1.42578 1.18687,-2.58153 2.65064,-2.58153 h 4e-4 c 1.46373,2.1e-4 2.65024,1.1561 2.65024,2.58194 z"
         style="fill:none;stroke:#000000;stroke-width:0.0986075;stroke-linecap:round;stroke-linejoin:round"
         id="path2461" />
      <path
         d="m 7.06939,4.58376 c 0,0.62814 -0.25603,1.23057 -0.71177,1.67487 C 6.35374,6.26242 6.34985,6.26619 6.34594,6.26995 5.89091,6.70762 5.27704,6.95326 4.63718,6.95326 H 4.63675 C 3.97176,6.95314 3.36824,6.69291 2.92866,6.27018 2.48163,5.8403 2.20524,5.24346 2.20498,4.58469 c 0,-4.6e-4 0,-9.2e-4 0,-0.00138 2.4e-4,-1.30844 1.08908,-2.36906 2.4322,-2.36906 h 4.5e-4 c 1.34306,2.5e-4 2.43176,1.06102 2.43176,2.36951 z"
         style="fill:none;stroke:#000000;stroke-width:0.0986075;stroke-linecap:round;stroke-linejoin:round"
         id="path2463" />
      <path
         d="m 6.84875,4.58376 c 0,0.5712 -0.23275,1.11902 -0.64708,1.52308 C 6.19813,6.1103 6.19457,6.11375 6.191,6.11719 5.77723,6.51527 5.21903,6.73868 4.63718,6.73868 H 4.6367 C 4.03219,6.73856 3.48336,6.50195 3.08358,6.1174 2.67705,5.72636 2.42585,5.18353 2.42561,4.5846 c 0,-4.5e-4 0,-9e-4 0,-0.00134 2.7e-4,-1.18991 0.99032,-2.15443 2.21157,-2.15443 h 5e-4 c 1.22119,2.7e-4 2.21107,0.96496 2.21107,2.15493 z"
         style="fill:none;stroke:#000000;stroke-width:0.0986075;stroke-linecap:round;stroke-linejoin:round"
         id="path2465" />
      <path
         d="M 6.6261,4.58376 C 6.6261,5.0975 6.41683,5.59021 6.0443,5.95365 6.04109,5.95679 6.03787,5.95991 6.03464,5.96303 5.66252,6.32115 5.16048,6.52215 4.63718,6.52215 H 4.63665 C 4.09317,6.52201 3.59953,6.30925 3.23992,5.96322 2.87425,5.61137 2.64848,5.12305 2.64827,4.58451 c 0,-4.3e-4 0,-8.7e-4 0,-0.00131 2.9e-4,-1.07028 0.89065,-1.93783 1.98891,-1.93783 h 5.5e-4 C 5.73593,2.64566 6.6261,3.5134 6.6261,4.58376 Z"
         style="fill:none;stroke:#000000;stroke-width:0.0986075;stroke-linecap:round;stroke-linejoin:round"
         id="path2467" />
      <path
         d="m 6.40158,4.58376 c 0,0.45579 -0.18559,0.89294 -0.51597,1.21542 C 5.88274,5.80199 5.87986,5.80479 5.87697,5.80758 5.54685,6.12541 5.10145,6.3038 4.63718,6.3038 L 4.6366,6.30379 C 4.15466,6.30364 3.71668,6.11494 3.39756,5.80774 3.07311,5.49542 2.87297,5.06206 2.87278,4.58442 c 0,-4.2e-4 0,-8.4e-4 1e-5,-0.00127 3.2e-4,-0.94967 0.79014,-1.71943 1.76439,-1.71943 h 6e-4 c 0.97418,3.2e-4 1.7638,0.77029 1.7638,1.72004 z"
         style="fill:none;stroke:#000000;stroke-width:0.0986075;stroke-linecap:round;stroke-linejoin:round"
         id="path2469" />
      <path
         d="m 6.17532,4.58376 c 0,0.3974 -0.16172,0.77855 -0.44963,1.05976 C 5.72317,5.646 5.72063,5.64847 5.71808,5.65093 5.43028,5.92816 5.04196,6.08376 4.63718,6.08376 l -6.3e-4,-10e-6 C 4.21663,6.08359 3.83473,5.91912 3.55643,5.65107 3.27351,5.37857 3.0992,5.00061 3.09904,4.58433 c 0,-4.1e-4 0,-8.2e-4 0,-0.00123 3.5e-4,-0.82812 0.68887,-1.49934 1.53814,-1.49934 h 6.5e-4 c 0.8492,3.5e-4 1.53749,0.67179 1.53749,1.5 z"
         style="fill:none;stroke:#000000;stroke-width:0.0986075;stroke-linecap:round;stroke-linejoin:round"
         id="path2471" />
      <path
         d="m 5.94745,4.58376 c 0,0.33859 -0.13769,0.66334 -0.38282,0.90299 C 5.56245,5.48889 5.56025,5.49102 5.55805,5.49315 5.31288,5.72949 4.98204,5.86214 4.63718,5.86214 H 4.6365 C 4.27903,5.86196 3.95363,5.7219 3.71643,5.49327 3.47534,5.26089 3.32705,4.93871 3.32692,4.58423 c 0,-3.9e-4 0,-7.8e-4 0,-0.00118 C 3.3273,3.87734 3.91378,3.30537 4.63718,3.30537 l 7.1e-4,1e-5 c 0.72331,3.8e-4 1.30956,0.57258 1.30956,1.27838 z"
         style="fill:none;stroke:#000000;stroke-width:0.0986075;stroke-linecap:round;stroke-linejoin:round"
         id="path2473" />
      <path
         d="m 5.71804,4.58376 c 0,0.27939 -0.11349,0.54736 -0.31555,0.74516 C 5.40065,5.33073 5.3988,5.33253 5.39695,5.33432 5.19469,5.52949 4.92172,5.63904 4.63718,5.63904 H 4.63645 C 4.34186,5.63884 4.07333,5.52336 3.87751,5.33441 3.67852,5.14242 3.55643,4.87639 3.55632,4.58414 c 0,-3.8e-4 0,-7.6e-4 0,-0.00114 4.1e-4,-0.58247 0.48417,-1.05452 1.08086,-1.05452 h 7.6e-4 c 0.59659,4e-4 1.0801,0.47271 1.0801,1.05528 z"
         style="fill:none;stroke:#000000;stroke-width:0.0986075;stroke-linecap:round;stroke-linejoin:round"
         id="path2475" />
      <path
         d="M 5.4872,4.58376 C 5.4872,4.80357 5.39806,5.01441 5.23933,5.1701 5.23784,5.17157 5.23634,5.17303 5.23484,5.17449 5.07576,5.32824 4.86102,5.41454 4.63718,5.41454 L 4.6364,5.41453 C 4.40508,5.41433 4.19377,5.32357 4.0396,5.17456 3.88298,5.02321 3.78724,4.81369 3.78716,4.58404 c 0,-3.6e-4 0,-7.3e-4 0,-0.00109 C 3.7876,4.12449 4.168,3.75298 4.63718,3.75298 h 8.1e-4 C 5.10707,3.75341 5.4872,4.1252 5.4872,4.58376 Z"
         style="fill:none;stroke:#000000;stroke-width:0.0986075;stroke-linecap:round;stroke-linejoin:round"
         id="path2477" />
      <path
         d="M 5.255,4.58376 C 5.255,4.74365 5.19034,4.89701 5.07521,5.01035 5.07407,5.01148 5.07292,5.0126 5.07177,5.01372 4.95613,5.1258 4.79997,5.18871 4.63718,5.18871 H 4.63635 C 4.46868,5.18849 4.31493,5.1226 4.20264,5.01377 4.08864,4.90329 4.01942,4.75062 4.01936,4.58395 c 0,-3.5e-4 1e-5,-7e-4 1e-5,-0.00106 C 4.01983,4.24918 4.29626,3.9788 4.63718,3.9788 h 8.6e-4 C 4.97886,3.97927 5.255,4.24994 5.255,4.58376 Z"
         style="fill:none;stroke:#000000;stroke-width:0.0986075;stroke-linecap:round;stroke-linejoin:round"
         id="path2479" />
      <path
         d="m 5.0215,4.58376 c 0,0.09963 -0.04003,0.1952 -0.11133,0.26594 L 4.9078,4.85205 C 4.83583,4.92223 4.73857,4.96163 4.63718,4.96163 l -8.8e-4,-1e-5 C 4.53263,4.96139 4.43676,4.92052 4.36659,4.85208 4.29545,4.7827 4.25289,4.68719 4.25286,4.58385 c 0,-3.3e-4 0,-6.7e-4 10e-6,-0.00101 4.9e-4,-0.20827 0.17236,-0.37695 0.38431,-0.37695 h 9.2e-4 c 0.21183,4.9e-4 0.3834,0.16948 0.3834,0.37787 z"
         style="fill:none;stroke:#000000;stroke-width:0.0986075;stroke-linecap:round;stroke-linejoin:round"
         id="path2481" />
      <path
         d="m 4.78677,4.58376 c 0,0.03905 -0.01527,0.07653 -0.04251,0.10445 L 4.74295,4.68953 C 4.7149,4.71758 4.67685,4.73334 4.63718,4.73334 H 4.63625 C 4.59691,4.7331 4.55924,4.71736 4.53141,4.68953 4.50335,4.66148 4.48759,4.62343 4.48759,4.58376 l 10e-6,-9.7e-4 C 4.48812,4.50062 4.55489,4.43417 4.63718,4.43417 h 9.7e-4 c 0.08217,5.2e-4 0.14862,0.06729 0.14862,0.14959 z"
         style="fill:none;stroke:#000000;stroke-width:0.0986075;stroke-linecap:round;stroke-linejoin:round"
         id="path2483" />
    </g>
  </g>
</svg>
