<?xml version="1.0" encoding="UTF-8" standalone="no"?>
<!-- Created with Inkscape (http://www.inkscape.org/) -->

<svg
   width="118"
   height="35"
   viewBox="0 0 31.220833 9.2604166"
   version="1.1"
   id="svg5"
   xmlns="http://www.w3.org/2000/svg"
   xmlnsSvg="http://www.w3.org/2000/svg">
  <defs
     id="defs2" />
  <g
     id="layer1">
    <path
       id="path2409"
       style="fill:none;stroke:#000000;stroke-width:0.0986075;stroke-linecap:round;stroke-linejoin:round"
       d="M 9.0654726,4.5837564 A 4.4282918,4.3107591 0 0 1 4.6371808,8.8945155 4.4282918,4.3107591 0 0 1 0.20888901,4.5837564 4.4282918,4.3107591 0 0 1 4.6371808,0.27299738 4.4282918,4.3107591 0 0 1 9.0654726,4.5837564 Z" />
    <path
       id="path2411"
       style="fill:none;stroke:#000000;stroke-width:0.085;stroke-linecap:round;stroke-linejoin:round"
       d="M 4.7867673,4.5837564 A 0.14958647,0.14958647 0 0 1 4.6371808,4.7333429 0.14958647,0.14958647 0 0 1 4.4875943,4.5837564 0.14958647,0.14958647 0 0 1 4.6371808,4.43417 0.14958647,0.14958647 0 0 1 4.7867673,4.5837564 Z" />
    <g
       id="g2485">
      <path
         d="m 9.06547,4.58376 c 0,1.14328 -0.46655,2.23974 -1.29701,3.04816 C 7.76156,7.63863 7.75465,7.64532 7.74771,7.65198 6.91929,8.44786 5.80189,8.89452 4.63718,8.89452 v 0 C 3.42509,8.89452 2.32674,8.42046 1.52711,7.65242 0.713691,6.87115 0.209382,5.78566 0.208889,4.58552 V 4.58376 c 0,-2.38077 1.982611,-4.310763 4.428291,-4.310763 v 0 c 2.44568,0 4.42829,1.929993 4.42829,4.310763 z"
         style="fill:none;stroke:#000000;stroke-width:0.0986075;stroke-linecap:round;stroke-linejoin:round"
         id="path2443" />
      <path
         d="m 8.90692,4.58376 c 0,1.10236 -0.44983,2.15958 -1.25053,2.93908 C 7.64974,7.52932 7.64306,7.53577 7.63637,7.5422 6.8376,8.30962 5.7602,8.74032 4.63718,8.74032 h -3e-5 C 3.46851,8.74031 2.40947,8.28324 1.63844,7.54263 0.854123,6.78926 0.367918,5.74259 0.367444,4.58545 c 0,-5.8e-4 0,-0.00115 0,-0.00173 C 0.367463,2.28813 2.27908,0.427197 4.63718,0.427197 h 4e-5 c 2.35809,1.9e-5 4.2697,1.860963 4.2697,4.156563 z"
         style="fill:none;stroke:#000000;stroke-width:0.0986075;stroke-linecap:round;stroke-linejoin:round"
         id="path2445" />
      <path
         d="M 8.7256,4.58376 C 8.7256,5.63933 8.2949,6.65167 7.52824,7.3981 7.52186,7.40431 7.51546,7.4105 7.50904,7.41667 6.74419,8.15155 5.71252,8.56398 4.63718,8.56398 h -7e-5 C 3.51817,8.56396 2.50407,8.12631 1.76575,7.41707 1.01471,6.69563 0.549212,5.69334 0.548759,4.58538 c 0,-5.7e-4 0,-0.00114 0,-0.0017 C 0.5488,2.3855 2.37923,0.603531 4.63718,0.603531 h 8e-5 C 6.8952,0.603573 8.7256,2.38556 8.7256,4.58376 Z"
         style="fill:none;stroke:#000000;stroke-width:0.0986075;stroke-linecap:round;stroke-linejoin:round"
         id="path2447" />
      <path
         d="m 8.53457,4.58376 c 0,1.00627 -0.41055,1.97133 -1.14136,2.68291 C 7.38712,7.2726 7.38101,7.27851 7.37488,7.2844 6.64577,7.98501 5.66229,8.3782 4.63718,8.3782 H 4.63707 C 3.57049,8.37817 2.60375,7.96098 1.89988,7.28479 1.18391,6.59697 0.740221,5.64145 0.739789,4.5853 c 0,-5.6e-4 0,-0.00111 0,-0.00166 C 0.739854,2.48808 2.48475,0.789314 4.63718,0.789314 h 1.2e-4 c 2.15242,6.5e-5 3.89727,1.698866 3.89727,3.794446 z"
         style="fill:none;stroke:#000000;stroke-width:0.0986075;stroke-linecap:round;stroke-linejoin:round"
         id="path2449" />
      <path
         d="m 8.33695,4.58376 c 0,0.95527 -0.38972,1.87141 -1.08342,2.54694 C 7.24774,7.13635 7.24193,7.14197 7.2361,7.14757 6.54395,7.81271 5.61033,8.186 4.63718,8.186 H 4.63702 C 3.62461,8.18596 2.70686,7.78994 2.03864,7.14794 1.35895,6.49491 0.937824,5.58777 0.937416,4.58522 c 0,-5.5e-4 0,-0.00109 0,-0.00163 C 0.937505,2.5942 2.59391,0.981512 4.63718,0.981512 h 1.7e-4 c 2.04324,8.9e-5 3.6996,1.612838 3.6996,3.602248 z"
         style="fill:none;stroke:#000000;stroke-width:0.0986075;stroke-linecap:round;stroke-linejoin:round"
         id="path2451" />
      <path
         d="m 8.13427,4.58376 c 0,0.90296 -0.36834,1.76894 -1.02399,2.4075 C 7.10479,6.99661 7.09929,7.00193 7.09377,7.00724 6.43953,7.63601 5.55704,7.98889 4.63718,7.98889 h -2e-4 C 3.68012,7.98883 2.81261,7.61453 2.18096,7.00759 1.53846,6.39024 1.14048,5.53272 1.1401,4.58513 c 0,-5.3e-4 0,-0.00106 0,-0.00158 1.1e-4,-1.88051 1.56576,-3.40492 3.49708,-3.40492 h 2.1e-4 c 1.93129,1.1e-4 3.49688,1.52459 3.49688,3.40513 z"
         style="fill:none;stroke:#000000;stroke-width:0.0986075;stroke-linecap:round;stroke-linejoin:round"
         id="path2453" />
      <path
         d="m 7.92746,4.58376 c 0,0.84959 -0.34652,1.66439 -0.96335,2.26522 C 6.95893,6.85403 6.95374,6.85905 6.94854,6.86406 6.33299,7.45571 5.50266,7.78777 4.63718,7.78777 H 4.63693 C 3.73676,7.7877 2.92052,7.43555 2.32616,6.86438 1.72163,6.28344 1.34726,5.47654 1.3469,4.58505 c 0,-5.2e-4 0,-0.00103 0,-0.00155 1.4e-4,-1.76941 1.47319,-3.20375 3.29028,-3.20375 h 2.6e-4 c 1.81705,1.4e-4 3.29002,1.43457 3.29002,3.20401 z"
         style="fill:none;stroke:#000000;stroke-width:0.0986075;stroke-linecap:round;stroke-linejoin:round"
         id="path2455" />
      <path
         d="m 7.71717,4.58376 c 0,0.79532 -0.32434,1.55807 -0.9017,2.12054 C 6.81062,6.70904 6.80574,6.71376 6.80086,6.71846 6.22464,7.27238 5.44737,7.58325 4.63718,7.58325 H 4.63689 C 3.79435,7.58317 3.03024,7.25354 2.47382,6.71876 1.90789,6.17484 1.55753,5.41942 1.55719,4.58496 c 0,-5e-4 0,-0.00101 0,-0.00151 1.7e-4,-1.65643 1.37906,-2.99919 3.07999,-2.99919 h 3.1e-4 c 1.70089,1.7e-4 3.07968,1.34302 3.07968,2.9995 z"
         style="fill:none;stroke:#000000;stroke-width:0.0986075;stroke-linecap:round;stroke-linejoin:round"
         id="path2457" />
      <path
         d="M 7.50384,4.58376 C 7.50384,5.32402 7.202,6.03398 6.66469,6.55753 6.66016,6.56196 6.65561,6.56636 6.65104,6.57075 6.11474,7.08639 5.39128,7.37578 4.63718,7.37578 H 4.63684 C 3.85278,7.37569 3.14155,7.06891 2.62361,6.57103 2.09683,6.06467 1.77083,5.36147 1.77052,4.58487 c 0,-4.9e-4 0,-9.8e-4 0,-0.00147 1.9e-4,-1.54183 1.28357,-2.79167 2.86666,-2.79167 h 3.5e-4 c 1.58305,1.9e-4 2.86631,1.25015 2.86631,2.79203 z"
         style="fill:none;stroke:#000000;stroke-width:0.0986075;stroke-linecap:round;stroke-linejoin:round"
         id="path2459" />
      <path
         d="m 7.28782,4.58376 c 0,0.68451 -0.27906,1.341 -0.77581,1.82515 C 6.5078,6.41302 6.50358,6.41711 6.49934,6.42119 6.00344,6.89806 5.33448,7.1657 4.63718,7.1657 H 4.63679 C 3.91194,7.16559 3.25426,6.88196 2.77529,6.42145 2.28816,5.95311 1.98683,5.3028 1.98654,4.58478 c 0,-4.7e-4 0,-9.5e-4 0,-0.00143 2.2e-4,-1.42578 1.18687,-2.58153 2.65064,-2.58153 h 4e-4 c 1.46373,2.1e-4 2.65024,1.1561 2.65024,2.58194 z"
         style="fill:none;stroke:#000000;stroke-width:0.0986075;stroke-linecap:round;stroke-linejoin:round"
         id="path2461" />
      <path
         d="m 7.06939,4.58376 c 0,0.62814 -0.25603,1.23057 -0.71177,1.67487 C 6.35374,6.26242 6.34985,6.26619 6.34594,6.26995 5.89091,6.70762 5.27704,6.95326 4.63718,6.95326 H 4.63675 C 3.97176,6.95314 3.36824,6.69291 2.92866,6.27018 2.48163,5.8403 2.20524,5.24346 2.20498,4.58469 c 0,-4.6e-4 0,-9.2e-4 0,-0.00138 2.4e-4,-1.30844 1.08908,-2.36906 2.4322,-2.36906 h 4.5e-4 c 1.34306,2.5e-4 2.43176,1.06102 2.43176,2.36951 z"
         style="fill:none;stroke:#000000;stroke-width:0.0986075;stroke-linecap:round;stroke-linejoin:round"
         id="path2463" />
      <path
         d="m 6.84875,4.58376 c 0,0.5712 -0.23275,1.11902 -0.64708,1.52308 C 6.19813,6.1103 6.19457,6.11375 6.191,6.11719 5.77723,6.51527 5.21903,6.73868 4.63718,6.73868 H 4.6367 C 4.03219,6.73856 3.48336,6.50195 3.08358,6.1174 2.67705,5.72636 2.42585,5.18353 2.42561,4.5846 c 0,-4.5e-4 0,-9e-4 0,-0.00134 2.7e-4,-1.18991 0.99032,-2.15443 2.21157,-2.15443 h 5e-4 c 1.22119,2.7e-4 2.21107,0.96496 2.21107,2.15493 z"
         style="fill:none;stroke:#000000;stroke-width:0.0986075;stroke-linecap:round;stroke-linejoin:round"
         id="path2465" />
      <path
         d="M 6.6261,4.58376 C 6.6261,5.0975 6.41683,5.59021 6.0443,5.95365 6.04109,5.95679 6.03787,5.95991 6.03464,5.96303 5.66252,6.32115 5.16048,6.52215 4.63718,6.52215 H 4.63665 C 4.09317,6.52201 3.59953,6.30925 3.23992,5.96322 2.87425,5.61137 2.64848,5.12305 2.64827,4.58451 c 0,-4.3e-4 0,-8.7e-4 0,-0.00131 2.9e-4,-1.07028 0.89065,-1.93783 1.98891,-1.93783 h 5.5e-4 C 5.73593,2.64566 6.6261,3.5134 6.6261,4.58376 Z"
         style="fill:none;stroke:#000000;stroke-width:0.0986075;stroke-linecap:round;stroke-linejoin:round"
         id="path2467" />
      <path
         d="m 6.40158,4.58376 c 0,0.45579 -0.18559,0.89294 -0.51597,1.21542 C 5.88274,5.80199 5.87986,5.80479 5.87697,5.80758 5.54685,6.12541 5.10145,6.3038 4.63718,6.3038 L 4.6366,6.30379 C 4.15466,6.30364 3.71668,6.11494 3.39756,5.80774 3.07311,5.49542 2.87297,5.06206 2.87278,4.58442 c 0,-4.2e-4 0,-8.4e-4 1e-5,-0.00127 3.2e-4,-0.94967 0.79014,-1.71943 1.76439,-1.71943 h 6e-4 c 0.97418,3.2e-4 1.7638,0.77029 1.7638,1.72004 z"
         style="fill:none;stroke:#000000;stroke-width:0.0986075;stroke-linecap:round;stroke-linejoin:round"
         id="path2469" />
      <path
         d="m 6.17532,4.58376 c 0,0.3974 -0.16172,0.77855 -0.44963,1.05976 C 5.72317,5.646 5.72063,5.64847 5.71808,5.65093 5.43028,5.92816 5.04196,6.08376 4.63718,6.08376 l -6.3e-4,-10e-6 C 4.21663,6.08359 3.83473,5.91912 3.55643,5.65107 3.27351,5.37857 3.0992,5.00061 3.09904,4.58433 c 0,-4.1e-4 0,-8.2e-4 0,-0.00123 3.5e-4,-0.82812 0.68887,-1.49934 1.53814,-1.49934 h 6.5e-4 c 0.8492,3.5e-4 1.53749,0.67179 1.53749,1.5 z"
         style="fill:none;stroke:#000000;stroke-width:0.0986075;stroke-linecap:round;stroke-linejoin:round"
         id="path2471" />
      <path
         d="m 5.94745,4.58376 c 0,0.33859 -0.13769,0.66334 -0.38282,0.90299 C 5.56245,5.48889 5.56025,5.49102 5.55805,5.49315 5.31288,5.72949 4.98204,5.86214 4.63718,5.86214 H 4.6365 C 4.27903,5.86196 3.95363,5.7219 3.71643,5.49327 3.47534,5.26089 3.32705,4.93871 3.32692,4.58423 c 0,-3.9e-4 0,-7.8e-4 0,-0.00118 C 3.3273,3.87734 3.91378,3.30537 4.63718,3.30537 l 7.1e-4,1e-5 c 0.72331,3.8e-4 1.30956,0.57258 1.30956,1.27838 z"
         style="fill:none;stroke:#000000;stroke-width:0.0986075;stroke-linecap:round;stroke-linejoin:round"
         id="path2473" />
      <path
         d="m 5.71804,4.58376 c 0,0.27939 -0.11349,0.54736 -0.31555,0.74516 C 5.40065,5.33073 5.3988,5.33253 5.39695,5.33432 5.19469,5.52949 4.92172,5.63904 4.63718,5.63904 H 4.63645 C 4.34186,5.63884 4.07333,5.52336 3.87751,5.33441 3.67852,5.14242 3.55643,4.87639 3.55632,4.58414 c 0,-3.8e-4 0,-7.6e-4 0,-0.00114 4.1e-4,-0.58247 0.48417,-1.05452 1.08086,-1.05452 h 7.6e-4 c 0.59659,4e-4 1.0801,0.47271 1.0801,1.05528 z"
         style="fill:none;stroke:#000000;stroke-width:0.0986075;stroke-linecap:round;stroke-linejoin:round"
         id="path2475" />
      <path
         d="M 5.4872,4.58376 C 5.4872,4.80357 5.39806,5.01441 5.23933,5.1701 5.23784,5.17157 5.23634,5.17303 5.23484,5.17449 5.07576,5.32824 4.86102,5.41454 4.63718,5.41454 L 4.6364,5.41453 C 4.40508,5.41433 4.19377,5.32357 4.0396,5.17456 3.88298,5.02321 3.78724,4.81369 3.78716,4.58404 c 0,-3.6e-4 0,-7.3e-4 0,-0.00109 C 3.7876,4.12449 4.168,3.75298 4.63718,3.75298 h 8.1e-4 C 5.10707,3.75341 5.4872,4.1252 5.4872,4.58376 Z"
         style="fill:none;stroke:#000000;stroke-width:0.0986075;stroke-linecap:round;stroke-linejoin:round"
         id="path2477" />
      <path
         d="M 5.255,4.58376 C 5.255,4.74365 5.19034,4.89701 5.07521,5.01035 5.07407,5.01148 5.07292,5.0126 5.07177,5.01372 4.95613,5.1258 4.79997,5.18871 4.63718,5.18871 H 4.63635 C 4.46868,5.18849 4.31493,5.1226 4.20264,5.01377 4.08864,4.90329 4.01942,4.75062 4.01936,4.58395 c 0,-3.5e-4 1e-5,-7e-4 1e-5,-0.00106 C 4.01983,4.24918 4.29626,3.9788 4.63718,3.9788 h 8.6e-4 C 4.97886,3.97927 5.255,4.24994 5.255,4.58376 Z"
         style="fill:none;stroke:#000000;stroke-width:0.0986075;stroke-linecap:round;stroke-linejoin:round"
         id="path2479" />
      <path
         d="m 5.0215,4.58376 c 0,0.09963 -0.04003,0.1952 -0.11133,0.26594 L 4.9078,4.85205 C 4.83583,4.92223 4.73857,4.96163 4.63718,4.96163 l -8.8e-4,-1e-5 C 4.53263,4.96139 4.43676,4.92052 4.36659,4.85208 4.29545,4.7827 4.25289,4.68719 4.25286,4.58385 c 0,-3.3e-4 0,-6.7e-4 10e-6,-0.00101 4.9e-4,-0.20827 0.17236,-0.37695 0.38431,-0.37695 h 9.2e-4 c 0.21183,4.9e-4 0.3834,0.16948 0.3834,0.37787 z"
         style="fill:none;stroke:#000000;stroke-width:0.0986075;stroke-linecap:round;stroke-linejoin:round"
         id="path2481" />
      <path
         d="m 4.78677,4.58376 c 0,0.03905 -0.01527,0.07653 -0.04251,0.10445 L 4.74295,4.68953 C 4.7149,4.71758 4.67685,4.73334 4.63718,4.73334 H 4.63625 C 4.59691,4.7331 4.55924,4.71736 4.53141,4.68953 4.50335,4.66148 4.48759,4.62343 4.48759,4.58376 l 10e-6,-9.7e-4 C 4.48812,4.50062 4.55489,4.43417 4.63718,4.43417 h 9.7e-4 c 0.08217,5.2e-4 0.14862,0.06729 0.14862,0.14959 z"
         style="fill:none;stroke:#000000;stroke-width:0.0986075;stroke-linecap:round;stroke-linejoin:round"
         id="path2483" />
    </g>
    <g
       aria-label="Genesys Portal"
       id="text2573"
       style="font-size:3.52778px;font-family:Calibri;-inkscape-font-specification:Calibri;stroke:#000000;stroke-width:0.085;stroke-linecap:round;stroke-linejoin:round">
      <path
         d="m 11.50139,1.1727672 q 0,0.032728 -0.0034,0.058567 -0.0034,0.024116 -0.01033,0.041341 -0.0069,0.015503 -0.01723,0.022393 -0.01033,0.00689 -0.02239,0.00689 -0.02067,0 -0.0689,-0.032728 -0.04823,-0.032728 -0.129191,-0.072347 -0.08096,-0.039619 -0.194648,-0.072347 -0.111966,-0.032728 -0.266995,-0.032728 -0.184313,0 -0.33073,0.067179 -0.146416,0.067179 -0.248047,0.1860352 -0.10163,0.1188559 -0.156752,0.2824981 -0.053399,0.1636421 -0.053399,0.354845 0,0.2135961 0.058567,0.3789608 0.06029,0.1653647 0.165365,0.2790529 0.105075,0.1136882 0.249769,0.1722549 0.146417,0.058567 0.320394,0.058567 0.103353,0 0.208429,-0.024116 0.106798,-0.025838 0.198093,-0.075792 V 2.1218916 H 10.68323 q -0.02928,0 -0.04479,-0.029283 -0.01378,-0.029283 -0.01378,-0.091295 0,-0.032728 0.0034,-0.055122 0.0034,-0.024116 0.01034,-0.037896 0.0086,-0.015503 0.01895,-0.022393 0.01033,-0.00689 0.02584,-0.00689 h 0.707968 q 0.01895,0 0.0379,0.00689 0.01895,0.00689 0.03445,0.020671 0.0155,0.01378 0.02412,0.037896 0.0086,0.024116 0.0086,0.055122 v 0.8492166 q 0,0.044786 -0.0155,0.077515 -0.0155,0.032728 -0.06546,0.058567 -0.04995,0.024116 -0.129192,0.053399 -0.07924,0.029283 -0.163642,0.049954 -0.08441,0.020671 -0.170532,0.031006 -0.08613,0.010335 -0.170532,0.010335 -0.258383,0 -0.461643,-0.079237 -0.203261,-0.08096 -0.3445103,-0.229099 -0.1395264,-0.1481392 -0.213596,-0.354845 -0.07407,-0.2067059 -0.07407,-0.4616431 0,-0.2652726 0.079237,-0.4805912 0.08096,-0.2153186 0.2256539,-0.3669029 0.1464164,-0.1515843 0.3496774,-0.23426662 0.204983,-0.0844049 0.45303,-0.0844049 0.127469,0 0.239434,0.0223931 0.111966,0.0223931 0.198093,0.053399 0.08785,0.0292833 0.146417,0.0654569 0.06029,0.034451 0.08268,0.0568441 0.02239,0.022393 0.03101,0.051676 0.0086,0.029283 0.0086,0.084405 z"
         id="path2629" />
      <path
         d="m 13.342795,2.2131867 q 0,0.067179 -0.03445,0.096463 -0.03273,0.027561 -0.07579,0.027561 h -1.016304 q 0,0.1291912 0.02584,0.2325441 0.02584,0.1033529 0.08613,0.1774225 0.06029,0.07407 0.156752,0.1136882 0.09646,0.039619 0.23599,0.039619 0.110243,0 0.19637,-0.017225 0.08613,-0.018948 0.148139,-0.041341 0.06373,-0.022393 0.103353,-0.039619 0.04134,-0.018948 0.06201,-0.018948 0.01206,0 0.02067,0.00689 0.01033,0.00517 0.0155,0.017225 0.0052,0.012058 0.0069,0.034451 0.0034,0.020671 0.0034,0.051677 0,0.022393 -0.0017,0.039619 -0.0017,0.015503 -0.0052,0.029283 -0.0017,0.012058 -0.0086,0.022393 -0.0052,0.010335 -0.0155,0.020671 -0.0086,0.00861 -0.05512,0.031006 -0.04651,0.020671 -0.120578,0.041341 -0.07407,0.020671 -0.172255,0.036173 -0.09646,0.017225 -0.206706,0.017225 -0.191203,0 -0.335897,-0.053399 -0.142971,-0.053399 -0.241157,-0.1584745 -0.09819,-0.1050755 -0.148139,-0.26355 -0.04995,-0.1584745 -0.04995,-0.3686254 0,-0.1998157 0.05168,-0.3582902 0.05168,-0.160197 0.148139,-0.2704402 0.09819,-0.1119656 0.235989,-0.1705323 0.137804,-0.060289 0.308336,-0.060289 0.18259,0 0.310059,0.058567 0.129191,0.058567 0.211874,0.1584745 0.08268,0.098185 0.120578,0.232544 0.03962,0.1326363 0.03962,0.2842206 z m -0.285943,-0.084405 q 0.0052,-0.2239314 -0.09991,-0.3514 -0.103353,-0.1274686 -0.308337,-0.1274686 -0.105075,0 -0.184312,0.039619 -0.07924,0.039619 -0.132637,0.1050755 -0.0534,0.065457 -0.08268,0.1533068 -0.02928,0.086128 -0.03273,0.1808677 z"
         id="path2631" />
      <path
         d="m 15.11013,3.0555131 q 0,0.01378 -0.0069,0.024116 -0.0069,0.00861 -0.02239,0.015503 -0.0155,0.00689 -0.04306,0.010335 -0.02756,0.00345 -0.0689,0.00345 -0.04306,0 -0.07062,-0.00345 -0.02756,-0.00345 -0.04306,-0.010335 -0.0155,-0.00689 -0.02239,-0.015503 -0.0069,-0.010335 -0.0069,-0.024116 V 2.1477298 q 0,-0.1326362 -0.02067,-0.213596 -0.02067,-0.08096 -0.06029,-0.1395265 -0.03962,-0.058567 -0.103353,-0.089573 -0.06201,-0.031006 -0.144694,-0.031006 -0.106798,0 -0.213596,0.075792 -0.106798,0.075792 -0.223931,0.2222088 v 1.0834833 q 0,0.01378 -0.0069,0.024116 -0.0069,0.00861 -0.02239,0.015503 -0.0155,0.00689 -0.04306,0.010335 -0.02756,0.00345 -0.07062,0.00345 -0.04134,0 -0.0689,-0.00345 -0.02756,-0.00345 -0.04479,-0.010335 -0.0155,-0.00689 -0.02239,-0.015503 -0.0052,-0.010335 -0.0052,-0.024116 v -1.550294 q 0,-0.01378 0.0052,-0.022393 0.0052,-0.010335 0.02067,-0.017225 0.0155,-0.00861 0.03962,-0.010335 0.02412,-0.00345 0.06373,-0.00345 0.0379,0 0.06201,0.00345 0.02584,0.00172 0.03962,0.010335 0.01378,0.00689 0.01895,0.017225 0.0069,0.00861 0.0069,0.022393 v 0.2049833 q 0.130914,-0.1464166 0.260105,-0.2135961 0.130914,-0.068902 0.26355,-0.068902 0.155029,0 0.260105,0.053399 0.106798,0.051676 0.172255,0.1395265 0.06546,0.08785 0.09302,0.2067058 0.02928,0.1171334 0.02928,0.282498 z"
         id="path2633" />
      <path
         d="m 16.951535,2.2131867 q 0,0.067179 -0.03445,0.096463 -0.03273,0.027561 -0.07579,0.027561 h -1.016303 q 0,0.1291912 0.02584,0.2325441 0.02584,0.1033529 0.08613,0.1774225 0.06029,0.07407 0.156752,0.1136882 0.09646,0.039619 0.235989,0.039619 0.110243,0 0.196371,-0.017225 0.08613,-0.018948 0.148139,-0.041341 0.06373,-0.022393 0.103353,-0.039619 0.04134,-0.018948 0.06201,-0.018948 0.01206,0 0.02067,0.00689 0.01034,0.00517 0.0155,0.017225 0.0052,0.012058 0.0069,0.034451 0.0034,0.020671 0.0034,0.051677 0,0.022393 -0.0017,0.039619 -0.0017,0.015503 -0.0052,0.029283 -0.0017,0.012058 -0.0086,0.022393 -0.0052,0.010335 -0.0155,0.020671 -0.0086,0.00861 -0.05512,0.031006 -0.04651,0.020671 -0.120578,0.041341 -0.07407,0.020671 -0.172255,0.036173 -0.09646,0.017225 -0.206706,0.017225 -0.191203,0 -0.335897,-0.053399 -0.142972,-0.053399 -0.241157,-0.1584745 -0.09819,-0.1050755 -0.148139,-0.26355 -0.04995,-0.1584745 -0.04995,-0.3686254 0,-0.1998157 0.05168,-0.3582902 0.05168,-0.160197 0.148139,-0.2704402 0.09818,-0.1119656 0.235989,-0.1705323 0.137804,-0.060289 0.308336,-0.060289 0.18259,0 0.310059,0.058567 0.129191,0.058567 0.211873,0.1584745 0.08268,0.098185 0.120579,0.232544 0.03962,0.1326363 0.03962,0.2842206 z m -0.285944,-0.084405 q 0.0052,-0.2239314 -0.09991,-0.3514 -0.103353,-0.1274686 -0.308337,-0.1274686 -0.105075,0 -0.184312,0.039619 -0.07924,0.039619 -0.132637,0.1050755 -0.0534,0.065457 -0.08268,0.1533068 -0.02928,0.086128 -0.03273,0.1808677 z"
         id="path2635" />
      <path
         d="m 18.357134,2.6334886 q 0,0.1188559 -0.04479,0.2118735 -0.04306,0.093018 -0.124024,0.1567519 -0.08096,0.063734 -0.192925,0.096463 -0.111966,0.032728 -0.246325,0.032728 -0.08268,0 -0.158474,-0.01378 -0.07407,-0.012058 -0.134359,-0.031006 -0.05857,-0.020671 -0.09991,-0.041341 -0.04134,-0.022393 -0.06029,-0.039619 -0.01895,-0.017225 -0.02756,-0.048231 -0.0086,-0.031006 -0.0086,-0.084405 0,-0.032728 0.0034,-0.055122 0.0034,-0.022393 0.0086,-0.036174 0.0052,-0.01378 0.01378,-0.018948 0.01033,-0.00689 0.02239,-0.00689 0.01895,0 0.05512,0.024116 0.0379,0.022393 0.0913,0.049954 0.05512,0.027561 0.129191,0.051676 0.07407,0.022393 0.170532,0.022393 0.07235,0 0.130914,-0.015503 0.05857,-0.015503 0.10163,-0.044786 0.04306,-0.031006 0.06546,-0.077515 0.02412,-0.046509 0.02412,-0.1102432 0,-0.065457 -0.03445,-0.1102431 -0.03273,-0.044786 -0.08785,-0.079237 -0.05512,-0.034451 -0.124024,-0.060289 -0.0689,-0.027561 -0.142971,-0.056844 -0.07235,-0.029283 -0.142972,-0.065457 -0.0689,-0.037896 -0.124023,-0.091295 -0.05512,-0.053399 -0.08957,-0.1274686 -0.03273,-0.07407 -0.03273,-0.1774226 0,-0.091295 0.03445,-0.1739774 0.03617,-0.084405 0.106798,-0.1464166 0.07062,-0.063734 0.1757,-0.1016304 0.106798,-0.037896 0.248047,-0.037896 0.06201,0 0.124023,0.010335 0.06201,0.010335 0.111966,0.025838 0.04995,0.015503 0.08441,0.034451 0.03617,0.017226 0.0534,0.031006 0.01895,0.01378 0.02412,0.024116 0.0069,0.010335 0.0086,0.024116 0.0034,0.012058 0.0052,0.031006 0.0034,0.018948 0.0034,0.046509 0,0.029283 -0.0034,0.051677 -0.0017,0.020671 -0.0086,0.034451 -0.0052,0.01378 -0.01378,0.020671 -0.0086,0.00517 -0.01895,0.00517 -0.0155,0 -0.04479,-0.018948 -0.02928,-0.018948 -0.07579,-0.039619 -0.04651,-0.022393 -0.110243,-0.041341 -0.06201,-0.018948 -0.142971,-0.018948 -0.07235,0 -0.127469,0.017226 -0.05512,0.015503 -0.09129,0.046509 -0.03445,0.029283 -0.0534,0.070625 -0.01723,0.041341 -0.01723,0.089573 0,0.067179 0.03445,0.1136882 0.03445,0.044786 0.08957,0.079237 0.05512,0.034451 0.125746,0.062012 0.07062,0.027561 0.142972,0.056844 0.07407,0.029283 0.144694,0.065457 0.07235,0.036173 0.127468,0.08785 0.05512,0.051677 0.08785,0.1240235 0.03445,0.072347 0.03445,0.1722549 z"
         id="path2637" />
      <path
         d="m 19.406167,3.0985768 -0.206706,0.5701637 q -0.01033,0.027561 -0.0534,0.041341 -0.04134,0.015503 -0.127469,0.015503 -0.04479,0 -0.07235,-0.00517 -0.02756,-0.00345 -0.04306,-0.01378 -0.01378,-0.010335 -0.0155,-0.027561 -0.0017,-0.017225 0.0086,-0.041341 l 0.213596,-0.5391578 q -0.0155,-0.00689 -0.02928,-0.022393 -0.01378,-0.015503 -0.01895,-0.032728 L 18.50871,1.5620617 q -0.01378,-0.036174 -0.01378,-0.056844 0,-0.020671 0.01378,-0.032728 0.01378,-0.012058 0.04479,-0.015503 0.03101,-0.00517 0.08268,-0.00517 0.05168,0 0.08096,0.00345 0.02928,0.00172 0.04651,0.00861 0.01723,0.00689 0.02412,0.020671 0.0086,0.012058 0.01722,0.034451 l 0.442695,1.2436803 h 0.0052 l 0.427192,-1.2505705 q 0.01034,-0.032728 0.02412,-0.041341 0.0155,-0.010335 0.04479,-0.01378 0.02928,-0.00517 0.08441,-0.00517 0.04823,0 0.07924,0.00517 0.03101,0.00345 0.04479,0.015503 0.0155,0.012058 0.0155,0.032728 0,0.020671 -0.01034,0.051677 z"
         id="path2639" />
      <path
         d="m 21.237236,2.6334886 q 0,0.1188559 -0.04479,0.2118735 -0.04306,0.093018 -0.124023,0.1567519 -0.08096,0.063734 -0.192926,0.096463 -0.111966,0.032728 -0.246324,0.032728 -0.08268,0 -0.158475,-0.01378 -0.07407,-0.012058 -0.134359,-0.031006 -0.05857,-0.020671 -0.09991,-0.041341 -0.04134,-0.022393 -0.06029,-0.039619 -0.01895,-0.017225 -0.02756,-0.048231 -0.0086,-0.031006 -0.0086,-0.084405 0,-0.032728 0.0034,-0.055122 0.0034,-0.022393 0.0086,-0.036174 0.0052,-0.01378 0.01378,-0.018948 0.01033,-0.00689 0.02239,-0.00689 0.01895,0 0.05512,0.024116 0.0379,0.022393 0.09129,0.049954 0.05512,0.027561 0.129191,0.051676 0.07407,0.022393 0.170532,0.022393 0.07235,0 0.130914,-0.015503 0.05857,-0.015503 0.10163,-0.044786 0.04306,-0.031006 0.06546,-0.077515 0.02412,-0.046509 0.02412,-0.1102432 0,-0.065457 -0.03445,-0.1102431 -0.03273,-0.044786 -0.08785,-0.079237 -0.05512,-0.034451 -0.124024,-0.060289 -0.0689,-0.027561 -0.142971,-0.056844 -0.07235,-0.029283 -0.142972,-0.065457 -0.0689,-0.037896 -0.124023,-0.091295 -0.05512,-0.053399 -0.08957,-0.1274686 -0.03273,-0.07407 -0.03273,-0.1774226 0,-0.091295 0.03445,-0.1739774 0.03617,-0.084405 0.106798,-0.1464166 0.07062,-0.063734 0.1757,-0.1016304 0.106798,-0.037896 0.248047,-0.037896 0.06201,0 0.124023,0.010335 0.06201,0.010335 0.111966,0.025838 0.04995,0.015503 0.08441,0.034451 0.03617,0.017226 0.0534,0.031006 0.01895,0.01378 0.02412,0.024116 0.0069,0.010335 0.0086,0.024116 0.0034,0.012058 0.0052,0.031006 0.0034,0.018948 0.0034,0.046509 0,0.029283 -0.0034,0.051677 -0.0017,0.020671 -0.0086,0.034451 -0.0052,0.01378 -0.01378,0.020671 -0.0086,0.00517 -0.01895,0.00517 -0.0155,0 -0.04479,-0.018948 -0.02928,-0.018948 -0.07579,-0.039619 -0.04651,-0.022393 -0.110243,-0.041341 -0.06201,-0.018948 -0.142971,-0.018948 -0.07235,0 -0.127469,0.017226 -0.05512,0.015503 -0.0913,0.046509 -0.03445,0.029283 -0.0534,0.070625 -0.01722,0.041341 -0.01722,0.089573 0,0.067179 0.03445,0.1136882 0.03445,0.044786 0.08957,0.079237 0.05512,0.034451 0.125746,0.062012 0.07062,0.027561 0.142972,0.056844 0.07407,0.029283 0.144694,0.065457 0.07235,0.036173 0.127468,0.08785 0.05512,0.051677 0.08785,0.1240235 0.03445,0.072347 0.03445,0.1722549 z"
         id="path2641" />
      <path
         d="m 23.843452,1.5224446 q 0,0.1670872 -0.05512,0.301446 -0.05512,0.1343588 -0.158475,0.229099 -0.10163,0.09474 -0.251492,0.1464167 -0.148139,0.051676 -0.354845,0.051676 h -0.253214 v 0.8027078 q 0,0.01378 -0.0086,0.024116 -0.0069,0.010335 -0.02412,0.017225 -0.0155,0.00517 -0.04479,0.00861 -0.02756,0.00517 -0.07062,0.00517 -0.04306,0 -0.07235,-0.00517 -0.02756,-0.00345 -0.04479,-0.00861 -0.01722,-0.00689 -0.02412,-0.017225 -0.0069,-0.010335 -0.0069,-0.024116 V 0.99706718 q 0,-0.068902 0.03617,-0.0981853 0.03617,-0.0292833 0.08096,-0.0292833 h 0.477146 q 0.07235,0 0.137804,0.00689 0.06718,0.005168 0.156752,0.0258382 0.0913,0.018948 0.184313,0.0740696 0.09474,0.053399 0.160197,0.13263632 0.06546,0.079237 0.09991,0.1843127 0.03617,0.1033529 0.03617,0.229099 z m -0.311781,0.024116 q 0,-0.1360814 -0.05168,-0.2273765 -0.04995,-0.091295 -0.125746,-0.1360813 -0.07407,-0.044786 -0.15503,-0.056844 -0.07924,-0.012058 -0.155029,-0.012058 H 22.770305 V 2.0082034 H 23.0373 q 0.134358,0 0.222208,-0.034451 0.08957,-0.034451 0.149862,-0.09474 0.06029,-0.062012 0.0913,-0.1464167 0.03101,-0.086127 0.03101,-0.1860352 z"
         id="path2643" />
      <path
         d="m 25.634903,2.2631406 q 0,0.1894804 -0.04995,0.3496774 -0.04995,0.1584745 -0.149862,0.2738853 -0.09819,0.1154107 -0.248047,0.1808676 -0.148139,0.063734 -0.344509,0.063734 -0.191203,0 -0.334175,-0.056844 -0.141249,-0.056844 -0.235989,-0.1653647 -0.09474,-0.1085206 -0.141249,-0.26355 -0.04651,-0.1550294 -0.04651,-0.3513999 0,-0.1894804 0.04823,-0.3479549 0.04995,-0.160197 0.14814,-0.2756078 0.09991,-0.1154108 0.248047,-0.1791451 0.148139,-0.063734 0.346232,-0.063734 0.191203,0 0.332452,0.056844 0.142972,0.056844 0.237712,0.1653647 0.09474,0.1085206 0.141249,0.26355 0.04823,0.1550294 0.04823,0.3496774 z m -0.299723,0.018948 q 0,-0.125746 -0.02412,-0.2377117 -0.02239,-0.1119657 -0.07579,-0.1963706 -0.0534,-0.084405 -0.144694,-0.1326362 -0.0913,-0.049954 -0.227377,-0.049954 -0.125746,0 -0.217041,0.044786 -0.08957,0.044786 -0.148139,0.1274686 -0.05857,0.08096 -0.08785,0.1929255 -0.02756,0.1119657 -0.02756,0.2446019 0,0.1274686 0.02239,0.2394343 0.02412,0.1119657 0.07751,0.1963706 0.05512,0.082682 0.146417,0.1326363 0.0913,0.048231 0.227376,0.048231 0.124024,0 0.215319,-0.044786 0.0913,-0.044786 0.149861,-0.1257461 0.05857,-0.08096 0.08613,-0.1929255 0.02756,-0.1119657 0.02756,-0.2463245 z"
         id="path2645" />
      <path
         d="m 26.959543,1.6068495 q 0,0.037896 -0.0017,0.063734 -0.0017,0.025838 -0.0069,0.041341 -0.0052,0.01378 -0.01378,0.022393 -0.0069,0.00689 -0.02067,0.00689 -0.01378,0 -0.03445,-0.00689 -0.01895,-0.00861 -0.04479,-0.015503 -0.02412,-0.00861 -0.05512,-0.015503 -0.03101,-0.00689 -0.06718,-0.00689 -0.04306,0 -0.08441,0.017225 -0.04134,0.017226 -0.08785,0.056844 -0.04479,0.039619 -0.09474,0.1050755 -0.04995,0.065457 -0.110243,0.160197 v 1.019749 q 0,0.01378 -0.0069,0.024116 -0.0069,0.00861 -0.02239,0.015503 -0.0155,0.00689 -0.04306,0.010335 -0.02756,0.00345 -0.07062,0.00345 -0.04134,0 -0.0689,-0.00345 -0.02756,-0.00345 -0.04479,-0.010335 -0.0155,-0.00689 -0.02239,-0.015503 -0.0052,-0.010335 -0.0052,-0.024116 V 1.505218 q 0,-0.01378 0.0052,-0.022393 0.0052,-0.010335 0.02067,-0.017225 0.0155,-0.00861 0.03962,-0.010335 0.02412,-0.00345 0.06373,-0.00345 0.0379,0 0.06201,0.00345 0.02584,0.00172 0.03962,0.010335 0.01378,0.00689 0.01895,0.017225 0.0069,0.00861 0.0069,0.022393 v 0.225655 q 0.06373,-0.093018 0.118856,-0.1515843 0.05684,-0.058567 0.106798,-0.091295 0.04995,-0.034451 0.09818,-0.046509 0.04995,-0.01378 0.09991,-0.01378 0.02239,0 0.04995,0.00345 0.02928,0.00172 0.06029,0.00861 0.03101,0.00689 0.05512,0.015503 0.02584,0.00861 0.03617,0.017226 0.01034,0.00861 0.01378,0.017225 0.0034,0.00689 0.0052,0.018948 0.0034,0.012058 0.0034,0.036174 0.0017,0.022393 0.0017,0.062012 z"
         id="path2647" />
      <path
         d="m 28.089535,2.9418248 q 0,0.049954 -0.0069,0.079237 -0.0069,0.029283 -0.02067,0.043064 -0.01378,0.01378 -0.04134,0.025838 -0.02756,0.012058 -0.06373,0.018948 -0.03445,0.00861 -0.07407,0.01378 -0.03962,0.00517 -0.07924,0.00517 -0.120578,0 -0.206706,-0.031006 Q 27.510749,3.0641278 27.45563,3.0003928 27.40051,2.9349358 27.37467,2.8367507 27.35055,2.7368427 27.35055,2.602484 V 1.696422 h -0.217041 q -0.02584,0 -0.04134,-0.027561 -0.0155,-0.027561 -0.0155,-0.089573 0,-0.032728 0.0034,-0.055122 0.0052,-0.022393 0.01206,-0.036174 0.0069,-0.015503 0.01722,-0.020671 0.01206,-0.00689 0.02584,-0.00689 h 0.215319 V 1.0918074 q 0,-0.012058 0.0052,-0.022393 0.0069,-0.010335 0.02239,-0.017225 0.01722,-0.00861 0.04479,-0.012058 0.02756,-0.00345 0.0689,-0.00345 0.04306,0 0.07063,0.00345 0.02756,0.00345 0.04306,0.012058 0.0155,0.00689 0.02239,0.017225 0.0069,0.010335 0.0069,0.022393 v 0.3686254 h 0.397908 q 0.01378,0 0.02412,0.00689 0.01034,0.00517 0.01723,0.020671 0.0086,0.01378 0.01206,0.036174 0.0034,0.022393 0.0034,0.055122 0,0.062012 -0.0155,0.089573 -0.0155,0.027561 -0.04134,0.027561 h -0.397908 v 0.8647195 q 0,0.1601971 0.04651,0.2428794 0.04823,0.08096 0.170533,0.08096 0.03962,0 0.07062,-0.00689 0.03101,-0.00861 0.05512,-0.017225 0.02411,-0.00861 0.04134,-0.015503 0.01722,-0.00861 0.03101,-0.00861 0.0086,0 0.0155,0.00517 0.0086,0.00345 0.01206,0.015503 0.0052,0.012058 0.0086,0.032729 0.0034,0.020671 0.0034,0.051676 z"
         id="path2649" />
      <path
         d="m 29.589876,3.0572356 q 0,0.020671 -0.01378,0.031006 -0.01378,0.010335 -0.0379,0.015503 -0.02411,0.00517 -0.07062,0.00517 -0.04479,0 -0.07235,-0.00517 -0.02584,-0.00517 -0.0379,-0.015503 -0.01206,-0.010335 -0.01206,-0.031006 V 2.9022062 q -0.10163,0.1085206 -0.227377,0.1688098 -0.124023,0.060289 -0.26355,0.060289 -0.122301,0 -0.222208,-0.032728 -0.09819,-0.031006 -0.16881,-0.091295 -0.0689,-0.060289 -0.108521,-0.1481392 -0.0379,-0.08785 -0.0379,-0.1998157 0,-0.1309137 0.0534,-0.2273764 0.0534,-0.096463 0.153307,-0.1601971 0.09991,-0.063734 0.244602,-0.09474 0.144694,-0.032728 0.325562,-0.032728 h 0.213596 V 2.0237063 q 0,-0.089573 -0.01895,-0.1584745 -0.01895,-0.068902 -0.06201,-0.1136882 -0.04134,-0.046509 -0.108521,-0.068902 -0.06718,-0.024116 -0.165364,-0.024116 -0.105076,0 -0.189481,0.025838 -0.08268,0.024116 -0.146416,0.055121 -0.06201,0.029283 -0.105076,0.055122 -0.04134,0.024116 -0.06201,0.024116 -0.01378,0 -0.02411,-0.00689 -0.01034,-0.00689 -0.01895,-0.020671 -0.0069,-0.01378 -0.01034,-0.034451 -0.0034,-0.022393 -0.0034,-0.048231 0,-0.043064 0.0052,-0.067179 0.0069,-0.025838 0.02928,-0.048231 0.02412,-0.022393 0.08096,-0.051676 0.05684,-0.031006 0.130914,-0.055122 0.07407,-0.025838 0.161919,-0.041341 0.08785,-0.017225 0.177423,-0.017225 0.167087,0 0.284221,0.037896 0.117133,0.037896 0.18948,0.1119656 0.07235,0.072347 0.105075,0.1808677 0.03273,0.1085206 0.03273,0.2532147 z M 29.307378,2.349268 h -0.24288 q -0.117133,0 -0.20326,0.020671 -0.08613,0.018948 -0.142972,0.058567 -0.05684,0.037896 -0.08441,0.093018 -0.02584,0.053399 -0.02584,0.1240235 0,0.1205785 0.07579,0.1929255 0.07752,0.070625 0.215319,0.070625 0.111965,0 0.206706,-0.056844 0.09646,-0.056844 0.201538,-0.1739774 z"
         id="path2651" />
      <path
         d="m 30.396028,3.0555131 q 0,0.01378 -0.0069,0.024116 -0.0069,0.00861 -0.02239,0.015503 -0.0155,0.00689 -0.04306,0.010335 -0.02756,0.00345 -0.07062,0.00345 -0.04134,0 -0.0689,-0.00345 -0.02756,-0.00345 -0.04479,-0.010335 -0.0155,-0.00689 -0.02239,-0.015503 -0.0052,-0.010335 -0.0052,-0.024116 V 0.75418779 q 0,-0.0137804 0.0052,-0.0241157 0.0069,-0.0103353 0.02239,-0.0172255 0.01722,-0.00689 0.04479,-0.0103353 0.02756,-0.003445 0.0689,-0.003445 0.04306,0 0.07062,0.003445 0.02756,0.003445 0.04306,0.0103353 0.0155,0.00689 0.02239,0.0172255 0.0069,0.0103353 0.0069,0.0241157 z"
         id="path2653" />
    </g>
    <g
       aria-label="Adventure Awaits"
       id="text2627"
       style="font-size:2.11667px;font-family:Calibri;-inkscape-font-specification:Calibri;stroke:#000000;stroke-width:0.085;stroke-linecap:round;stroke-linejoin:round">
      <path
         d="m 13.295762,7.9932539 q 0.0083,0.022738 0.0083,0.037207 10e-4,0.013436 -0.0072,0.020671 -0.0083,0.00723 -0.0279,0.0093 -0.0186,0.00207 -0.05064,0.00207 -0.03204,0 -0.05168,-0.00207 -0.0186,-0.00103 -0.02894,-0.00413 -0.0093,-0.00413 -0.01447,-0.010335 -0.0041,-0.0062 -0.0083,-0.015503 l -0.11476,-0.325565 h -0.556039 l -0.109554,0.3214279 q -0.0031,0.0093 -0.0083,0.016537 -0.0052,0.0062 -0.0155,0.011369 -0.0093,0.00413 -0.02791,0.0062 -0.01757,0.00207 -0.04651,0.00207 -0.02997,0 -0.04961,-0.0031 -0.0186,-0.00207 -0.02687,-0.0093 -0.0072,-0.00723 -0.0072,-0.020671 0.001,-0.014469 0.0093,-0.037207 L 12.610531,6.749917 q 0.0041,-0.011369 0.01033,-0.018604 0.0072,-0.00723 0.01964,-0.011369 0.01343,-0.00413 0.03307,-0.00517 0.02067,-0.00207 0.05168,-0.00207 0.03307,0 0.05478,0.00207 0.0217,0.00103 0.03514,0.00517 0.01344,0.00413 0.02067,0.012402 0.0072,0.00723 0.01137,0.018604 z M 12.720085,6.8966783 h -10e-4 l -0.230477,0.666627 h 0.465088 z"
         id="path2656" />
      <path
         d="m 14.296219,8.030461 q 0,0.00827 -0.0041,0.014469 -0.0031,0.0062 -0.0124,0.010335 -0.0083,0.0031 -0.02274,0.00517 -0.01447,0.00207 -0.03514,0.00207 -0.0217,0 -0.03617,-0.00207 -0.01447,-0.00207 -0.02377,-0.00517 -0.0093,-0.00413 -0.01344,-0.010335 -0.0041,-0.0062 -0.0041,-0.014469 V 7.9074709 q -0.07338,0.079582 -0.152962,0.1240236 -0.07855,0.044442 -0.1726,0.044442 -0.102319,0 -0.174667,-0.039274 -0.07235,-0.040308 -0.117822,-0.1074871 -0.04444,-0.068213 -0.06511,-0.1591637 -0.02067,-0.091984 -0.02067,-0.1932701 0,-0.1198895 0.02584,-0.2160078 0.02584,-0.097152 0.07648,-0.1653649 0.05064,-0.068213 0.125058,-0.1043865 0.07545,-0.037207 0.173633,-0.037207 0.08165,0 0.148828,0.036174 0.06821,0.03514 0.134359,0.1043865 V 6.6537987 q 0,-0.00723 0.0031,-0.013436 0.0041,-0.00723 0.01447,-0.010335 0.01034,-0.00413 0.02584,-0.0062 0.01654,-0.0031 0.04134,-0.0031 0.02584,0 0.04237,0.0031 0.01654,0.00207 0.02584,0.0062 0.0093,0.0031 0.01344,0.010335 0.0052,0.0062 0.0052,0.013436 z M 14.124653,7.3762363 q -0.06925,-0.085783 -0.134359,-0.1302248 -0.06408,-0.045475 -0.134359,-0.045475 -0.06511,0 -0.110588,0.031006 -0.04548,0.031006 -0.07441,0.081649 -0.02791,0.050643 -0.04134,0.1147218 -0.0124,0.064079 -0.0124,0.1302248 0,0.07028 0.01033,0.1374596 0.01137,0.067179 0.03824,0.1198895 0.02687,0.051677 0.07131,0.083716 0.04444,0.031006 0.111621,0.031006 0.03411,0 0.06511,-0.0093 0.03204,-0.0093 0.06511,-0.031006 0.03307,-0.021704 0.06925,-0.055811 0.03617,-0.03514 0.07648,-0.085783 z"
         id="path2658" />
      <path
         d="m 15.374191,7.0982167 q 0,0.00413 -10e-4,0.0093 0,0.00413 -10e-4,0.0093 -0.001,0.00517 -0.0031,0.011369 -10e-4,0.0062 -0.0031,0.013436 L 15.048697,8.02529 q -0.0041,0.011369 -0.01137,0.018604 -0.0062,0.00723 -0.01964,0.011369 -0.01344,0.00413 -0.03411,0.00517 -0.02067,0.00207 -0.05168,0.00207 -0.03101,0 -0.05168,-0.00207 -0.02067,-0.00207 -0.03411,-0.0062 -0.0124,-0.00413 -0.01964,-0.011369 -0.0072,-0.00723 -0.01137,-0.01757 L 14.498791,7.141625 q -0.0041,-0.012402 -0.0072,-0.021704 -0.0021,-0.0093 -0.0031,-0.013436 0,-0.00517 0,-0.00827 0,-0.00827 0.0041,-0.014469 0.0041,-0.0062 0.01344,-0.0093 0.01033,-0.00413 0.02584,-0.00517 0.01654,-0.00103 0.04031,-0.00103 0.02997,0 0.04754,0.00207 0.0186,0.00103 0.02791,0.00517 0.01034,0.00413 0.01447,0.010335 0.0052,0.0062 0.0093,0.015503 l 0.262516,0.7668794 0.0041,0.012402 0.0031,-0.012402 0.259416,-0.7668794 q 0.0021,-0.0093 0.0072,-0.015503 0.0052,-0.0062 0.01447,-0.010335 0.01034,-0.00413 0.02687,-0.00517 0.01757,-0.00207 0.04547,-0.00207 0.02377,0 0.03927,0.00103 0.0155,0.00103 0.02377,0.00517 0.0093,0.00413 0.0124,0.010335 0.0041,0.00517 0.0041,0.013436 z"
         id="path2660" />
      <path
         d="m 16.340542,7.5250647 q 0,0.040308 -0.02067,0.057878 -0.01964,0.016536 -0.04547,0.016536 h -0.609783 q 0,0.077515 0.0155,0.1395265 0.0155,0.062012 0.05168,0.1064536 0.03617,0.044442 0.09405,0.068213 0.05788,0.023771 0.141593,0.023771 0.06615,0 0.117823,-0.010335 0.05168,-0.011369 0.08888,-0.024805 0.03824,-0.013436 0.06201,-0.023771 0.02481,-0.011369 0.03721,-0.011369 0.0072,0 0.0124,0.00413 0.0062,0.0031 0.0093,0.010335 0.0031,0.00723 0.0041,0.020671 0.0021,0.012402 0.0021,0.031006 0,0.013436 -0.001,0.023771 -0.001,0.0093 -0.0031,0.01757 -0.001,0.00723 -0.0052,0.013436 -0.0031,0.0062 -0.0093,0.012402 -0.0052,0.00517 -0.03307,0.018603 -0.02791,0.012402 -0.07235,0.024805 -0.04444,0.012402 -0.103353,0.021704 -0.05788,0.010335 -0.124024,0.010335 -0.114722,0 -0.201538,-0.032039 -0.08578,-0.032039 -0.144694,-0.095085 -0.05891,-0.063045 -0.08888,-0.1581302 -0.02997,-0.095085 -0.02997,-0.2211754 0,-0.1198895 0.03101,-0.2149743 0.03101,-0.096118 0.08888,-0.1622643 0.05891,-0.067179 0.141594,-0.1023194 0.08268,-0.036174 0.185002,-0.036174 0.109554,0 0.186035,0.03514 0.07752,0.03514 0.127124,0.095085 0.04961,0.058911 0.07235,0.1395266 0.02377,0.079582 0.02377,0.1705325 z m -0.171566,-0.050643 q 0.0031,-0.1343589 -0.05994,-0.2108402 -0.06201,-0.076481 -0.185002,-0.076481 -0.06305,0 -0.110588,0.023771 -0.04754,0.023771 -0.07958,0.063045 -0.03204,0.039274 -0.04961,0.091984 -0.01757,0.051677 -0.01964,0.1085207 z"
         id="path2662" />
      <path
         d="m 17.400944,8.030461 q 0,0.00827 -0.0041,0.014469 -0.0041,0.00517 -0.01344,0.0093 -0.0093,0.00413 -0.02584,0.0062 -0.01654,0.00207 -0.04134,0.00207 -0.02584,0 -0.04237,-0.00207 -0.01654,-0.00207 -0.02584,-0.0062 -0.0093,-0.00413 -0.01344,-0.0093 -0.0041,-0.0062 -0.0041,-0.014469 V 7.4857905 q 0,-0.079582 -0.0124,-0.1281577 -0.0124,-0.048576 -0.03617,-0.083716 -0.02377,-0.03514 -0.06201,-0.053744 -0.03721,-0.018604 -0.08682,-0.018604 -0.06408,0 -0.128158,0.045475 -0.06408,0.045475 -0.134359,0.1333254 V 8.030461 q 0,0.00827 -0.0041,0.014469 -0.0041,0.00517 -0.01344,0.0093 -0.0093,0.00413 -0.02584,0.0062 -0.01654,0.00207 -0.04237,0.00207 -0.0248,0 -0.04134,-0.00207 -0.01654,-0.00207 -0.02687,-0.0062 -0.0093,-0.00413 -0.01344,-0.0093 -0.0031,-0.0062 -0.0031,-0.014469 V 7.1002838 q 0,-0.00827 0.0031,-0.013436 0.0031,-0.0062 0.0124,-0.010335 0.0093,-0.00517 0.02377,-0.0062 0.01447,-0.00207 0.03824,-0.00207 0.02274,0 0.03721,0.00207 0.0155,0.00103 0.02377,0.0062 0.0083,0.00413 0.01137,0.010335 0.0041,0.00517 0.0041,0.013436 v 0.1229901 q 0.07855,-0.08785 0.156063,-0.1281578 0.07855,-0.041341 0.15813,-0.041341 0.09302,0 0.156063,0.032039 0.06408,0.031006 0.103353,0.083716 0.03927,0.05271 0.05581,0.1240236 0.01757,0.07028 0.01757,0.169499 z"
         id="path2664" />
      <path
         d="m 18.176092,7.962248 q 0,0.029972 -0.0041,0.047542 -0.0041,0.01757 -0.0124,0.025838 -0.0083,0.00827 -0.02481,0.015503 -0.01654,0.00723 -0.03824,0.011369 -0.02067,0.00517 -0.04444,0.00827 -0.02377,0.0031 -0.04754,0.0031 -0.07235,0 -0.124024,-0.018604 -0.05168,-0.019637 -0.08475,-0.057878 -0.03307,-0.039274 -0.04857,-0.098185 -0.01447,-0.059945 -0.01447,-0.1405601 V 7.2150056 h -0.130225 q -0.0155,0 -0.0248,-0.016536 -0.0093,-0.016536 -0.0093,-0.053743 0,-0.019637 0.0021,-0.033073 0.0031,-0.013436 0.0072,-0.021704 0.0041,-0.0093 0.01034,-0.012402 0.0072,-0.00413 0.0155,-0.00413 h 0.129191 V 6.8522365 q 0,-0.00723 0.0031,-0.013436 0.0041,-0.0062 0.01344,-0.010335 0.01033,-0.00517 0.02687,-0.00723 0.01654,-0.00207 0.04134,-0.00207 0.02584,0 0.04237,0.00207 0.01654,0.00207 0.02584,0.00723 0.0093,0.00413 0.01344,0.010335 0.0041,0.0062 0.0041,0.013436 V 7.073412 h 0.238745 q 0.0083,0 0.01447,0.00413 0.0062,0.0031 0.01033,0.012402 0.0052,0.00827 0.0072,0.021704 0.0021,0.013436 0.0021,0.033073 0,0.037207 -0.0093,0.053743 Q 18.157499,7.215 18.141989,7.215 H 17.90324 v 0.5188322 q 0,0.096118 0.02791,0.1457277 0.02894,0.048576 0.102319,0.048576 0.02377,0 0.04237,-0.00413 0.0186,-0.00517 0.03307,-0.010335 0.01447,-0.00517 0.02481,-0.0093 0.01033,-0.00517 0.0186,-0.00517 0.0052,0 0.0093,0.0031 0.0052,0.00207 0.0072,0.0093 0.0031,0.00723 0.0052,0.019637 0.0021,0.012402 0.0021,0.031006 z"
         id="path2666" />
      <path
         d="m 19.198253,8.030461 q 0,0.00827 -0.0041,0.014469 -0.0031,0.00517 -0.0124,0.0093 -0.0093,0.00413 -0.0248,0.0062 -0.01447,0.00207 -0.03617,0.00207 -0.02377,0 -0.03927,-0.00207 -0.01447,-0.00207 -0.02377,-0.0062 -0.0083,-0.00413 -0.01137,-0.0093 -0.0031,-0.0062 -0.0031,-0.014469 V 7.9074709 q -0.07958,0.08785 -0.157096,0.1281577 -0.07751,0.040308 -0.157097,0.040308 -0.09302,0 -0.157097,-0.031006 -0.06305,-0.031006 -0.102319,-0.083716 -0.03927,-0.053744 -0.05684,-0.1240236 -0.01654,-0.071314 -0.01654,-0.1725995 V 7.1002838 q 0,-0.00827 0.0031,-0.013436 0.0041,-0.0062 0.01447,-0.010335 0.01034,-0.00517 0.02687,-0.0062 0.01654,-0.00207 0.04134,-0.00207 0.0248,0 0.04134,0.00207 0.01654,0.00103 0.02584,0.0062 0.01034,0.00413 0.01447,0.010335 0.0041,0.00517 0.0041,0.013436 v 0.5415698 q 0,0.081649 0.01137,0.1312583 0.0124,0.048576 0.03617,0.083716 0.0248,0.034107 0.06201,0.053744 0.03721,0.018604 0.08682,0.018604 0.06408,0 0.127124,-0.045475 0.06408,-0.045475 0.135393,-0.1333254 V 7.1002838 q 0,-0.00827 0.0031,-0.013436 0.0041,-0.0062 0.01447,-0.010335 0.01033,-0.00517 0.02584,-0.0062 0.01654,-0.00207 0.04237,-0.00207 0.02481,0 0.04134,0.00207 0.01654,0.00103 0.02584,0.0062 0.0093,0.00413 0.01344,0.010335 0.0052,0.00517 0.0052,0.013436 z"
         id="path2668" />
      <path
         d="m 20.057117,7.161262 q 0,0.022738 -0.001,0.038241 -0.001,0.015503 -0.0041,0.024805 -0.0031,0.00827 -0.0083,0.013436 -0.0041,0.00413 -0.0124,0.00413 -0.0083,0 -0.02067,-0.00413 -0.01137,-0.00517 -0.02687,-0.0093 -0.01447,-0.00517 -0.03307,-0.0093 -0.0186,-0.00413 -0.04031,-0.00413 -0.02584,0 -0.05064,0.010335 -0.0248,0.010335 -0.05271,0.034107 -0.02687,0.023771 -0.05684,0.063045 -0.02997,0.039274 -0.06615,0.096118 v 0.611842 q 0,0.00827 -0.0041,0.014469 -0.0041,0.00517 -0.01344,0.0093 -0.0093,0.00413 -0.02584,0.0062 -0.01654,0.00207 -0.04237,0.00207 -0.02481,0 -0.04134,-0.00207 -0.01654,-0.00207 -0.02687,-0.0062 -0.0093,-0.00413 -0.01344,-0.0093 -0.0031,-0.0062 -0.0031,-0.014469 V 7.1002838 q 0,-0.00827 0.0031,-0.013436 0.0031,-0.0062 0.0124,-0.010335 0.0093,-0.00517 0.02377,-0.0062 0.01447,-0.00207 0.03824,-0.00207 0.02274,0 0.03721,0.00207 0.0155,0.00103 0.02377,0.0062 0.0083,0.00413 0.01137,0.010335 0.0041,0.00517 0.0041,0.013436 v 0.1353924 q 0.03824,-0.055811 0.07131,-0.090951 0.03411,-0.03514 0.06408,-0.054777 0.02997,-0.020671 0.05891,-0.027905 0.02997,-0.00827 0.05995,-0.00827 0.01344,0 0.02997,0.00207 0.01757,0.00103 0.03617,0.00517 0.0186,0.00413 0.03307,0.0093 0.0155,0.00517 0.0217,0.010335 0.0062,0.00517 0.0083,0.010335 0.0021,0.00413 0.0031,0.011369 0.0021,0.00723 0.0021,0.021704 10e-4,0.013436 10e-4,0.037207 z"
         id="path2670" />
      <path
         d="m 21.017266,7.5250647 q 0,0.040308 -0.02067,0.057878 -0.01964,0.016536 -0.04548,0.016536 h -0.609783 q 0,0.077515 0.0155,0.1395265 0.0155,0.062012 0.05168,0.1064536 0.03617,0.044442 0.09405,0.068213 0.05788,0.023771 0.141594,0.023771 0.06615,0 0.117822,-0.010335 0.05168,-0.011369 0.08888,-0.024805 0.03824,-0.013436 0.06201,-0.023771 0.0248,-0.011369 0.03721,-0.011369 0.0072,0 0.0124,0.00413 0.0062,0.0031 0.0093,0.010335 0.0031,0.00723 0.0041,0.020671 0.0021,0.012402 0.0021,0.031006 0,0.013436 -0.001,0.023771 -0.001,0.0093 -0.0031,0.01757 -0.001,0.00723 -0.0052,0.013436 -0.0031,0.0062 -0.0093,0.012402 -0.0052,0.00517 -0.03307,0.018603 -0.02791,0.012402 -0.07235,0.024805 -0.04444,0.012402 -0.103353,0.021704 -0.05788,0.010335 -0.124023,0.010335 -0.114722,0 -0.201539,-0.032039 -0.08578,-0.032039 -0.144694,-0.095085 -0.05891,-0.063045 -0.08888,-0.1581302 -0.02997,-0.095085 -0.02997,-0.2211754 0,-0.1198895 0.03101,-0.2149743 0.03101,-0.096118 0.08888,-0.1622643 0.05891,-0.067179 0.141593,-0.1023194 0.08268,-0.036174 0.185002,-0.036174 0.109554,0 0.186036,0.03514 0.07751,0.03514 0.127124,0.095085 0.04961,0.058911 0.07235,0.1395266 0.02377,0.079582 0.02377,0.1705325 z M 20.8457,7.4744217 q 0.0031,-0.1343589 -0.05994,-0.2108402 -0.06201,-0.076481 -0.185001,-0.076481 -0.06305,0 -0.110588,0.023771 -0.04754,0.023771 -0.07958,0.063045 -0.03204,0.039274 -0.04961,0.091984 -0.01757,0.051677 -0.01964,0.1085207 z"
         id="path2672" />
      <path
         d="m 22.776334,7.9932539 q 0.0083,0.022738 0.0083,0.037207 0.001,0.013436 -0.0072,0.020671 -0.0083,0.00723 -0.02791,0.0093 -0.0186,0.00207 -0.05064,0.00207 -0.03204,0 -0.05168,-0.00207 -0.0186,-0.00103 -0.02894,-0.00413 -0.0093,-0.00413 -0.01447,-0.010335 -0.0041,-0.0062 -0.0083,-0.015503 l -0.114749,-0.325565 h -0.55604 l -0.109554,0.3214279 q -0.0031,0.0093 -0.0083,0.016537 -0.0052,0.0062 -0.0155,0.011369 -0.0093,0.00413 -0.02791,0.0062 -0.01757,0.00207 -0.04651,0.00207 -0.02997,0 -0.04961,-0.0031 -0.0186,-0.00207 -0.02687,-0.0093 -0.0072,-0.00723 -0.0072,-0.020671 10e-4,-0.014469 0.0093,-0.037207 L 22.091104,6.749917 q 0.0041,-0.011369 0.01033,-0.018604 0.0072,-0.00723 0.01964,-0.011369 0.01344,-0.00413 0.03307,-0.00517 0.02067,-0.00207 0.05168,-0.00207 0.03307,0 0.05478,0.00207 0.0217,0.00103 0.03514,0.00517 0.01344,0.00413 0.02067,0.012402 0.0072,0.00723 0.01137,0.018604 z M 22.200658,6.8966783 h -0.001 l -0.230478,0.666627 h 0.465089 z"
         id="path2674" />
      <path
         d="m 24.281154,7.0982167 q 0,0.00723 -0.0021,0.01757 -0.0021,0.010335 -0.0072,0.025838 L 23.997968,8.025293 q -0.0031,0.011369 -0.01033,0.018604 -0.0062,0.00723 -0.0186,0.011369 -0.01137,0.00413 -0.03204,0.00517 -0.02067,0.00207 -0.05168,0.00207 -0.03204,0 -0.05374,-0.00207 -0.0217,-0.00207 -0.03514,-0.0062 -0.0124,-0.00413 -0.0186,-0.011369 -0.0062,-0.00723 -0.0093,-0.01757 l -0.195337,-0.6748952 -0.0021,-0.0093 -0.0021,0.0093 -0.180868,0.6748952 q -0.0031,0.011369 -0.01033,0.018604 -0.0062,0.00723 -0.01964,0.011369 -0.01344,0.00413 -0.03514,0.00517 -0.02067,0.00207 -0.05168,0.00207 -0.03204,0 -0.05271,-0.00207 -0.01964,-0.00207 -0.03307,-0.0062 -0.0124,-0.00413 -0.0186,-0.011369 -0.0062,-0.00723 -0.0093,-0.01757 L 22.885889,7.141625 q -0.0052,-0.015503 -0.0072,-0.025838 -0.0021,-0.010335 -0.0021,-0.01757 0,-0.0093 0.0041,-0.014469 0.0041,-0.0062 0.01344,-0.0093 0.01034,-0.00413 0.02687,-0.00517 0.01654,-0.00103 0.04031,-0.00103 0.02894,0 0.04651,0.00207 0.01757,0.00103 0.02687,0.00517 0.0093,0.0031 0.01344,0.010335 0.0041,0.0062 0.0072,0.015503 l 0.224276,0.7668794 0.0021,0.0093 0.0021,-0.0093 0.205672,-0.7668794 q 0.0021,-0.0093 0.0062,-0.015503 0.0052,-0.00723 0.01447,-0.010335 0.0093,-0.00413 0.02481,-0.00517 0.01654,-0.00207 0.04237,-0.00207 0.02481,0 0.04031,0.00207 0.01654,0.00103 0.02584,0.00517 0.0093,0.0031 0.01344,0.0093 0.0041,0.0062 0.0062,0.014469 l 0.222209,0.7689465 0.0021,0.0093 10e-4,-0.0093 0.221175,-0.7668794 q 0.0021,-0.0093 0.0062,-0.015503 0.0052,-0.00723 0.01447,-0.010335 0.01034,-0.00413 0.02687,-0.00517 0.01757,-0.00207 0.04444,-0.00207 0.0248,0 0.03927,0.00103 0.0155,0.00103 0.02377,0.00517 0.0093,0.00413 0.0124,0.0093 0.0041,0.00517 0.0041,0.014469 z"
         id="path2676" />
      <path
         d="m 25.16999,8.0314945 q 0,0.012402 -0.0083,0.018603 -0.0083,0.0062 -0.02274,0.0093 -0.01447,0.0031 -0.04237,0.0031 -0.02687,0 -0.04341,-0.0031 -0.0155,-0.0031 -0.02274,-0.0093 -0.0072,-0.0062 -0.0072,-0.018603 v -0.093018 q -0.06098,0.065112 -0.136426,0.1012859 -0.07441,0.036174 -0.15813,0.036174 -0.07338,0 -0.133325,-0.019637 -0.05891,-0.018603 -0.101286,-0.054777 -0.04134,-0.036174 -0.06511,-0.088884 -0.02274,-0.05271 -0.02274,-0.1198895 0,-0.078548 0.03204,-0.136426 0.03204,-0.057878 0.09198,-0.096118 0.05994,-0.038241 0.146761,-0.056844 0.08682,-0.019637 0.195338,-0.019637 h 0.128157 v -0.072347 q 0,-0.053744 -0.01137,-0.095085 -0.01137,-0.041341 -0.03721,-0.068213 -0.0248,-0.027905 -0.06511,-0.041341 -0.04031,-0.014469 -0.09922,-0.014469 -0.06304,0 -0.113688,0.015503 -0.04961,0.014469 -0.08785,0.033073 -0.03721,0.01757 -0.06305,0.033073 -0.0248,0.014469 -0.03721,0.014469 -0.0083,0 -0.01447,-0.00413 -0.0062,-0.00413 -0.01137,-0.012402 -0.0041,-0.00827 -0.0062,-0.020671 -0.0021,-0.013436 -0.0021,-0.028939 0,-0.025838 0.0031,-0.040308 0.0041,-0.015503 0.01757,-0.028939 0.01447,-0.013436 0.04858,-0.031006 0.03411,-0.018604 0.07855,-0.033073 0.04444,-0.015503 0.09715,-0.024805 0.05271,-0.010335 0.106454,-0.010335 0.100253,0 0.170533,0.022738 0.07028,0.022738 0.113688,0.067179 0.04341,0.043408 0.06304,0.1085207 0.01964,0.065112 0.01964,0.1519289 z M 25.000491,7.6067136 h -0.145727 q -0.07028,0 -0.121957,0.012402 -0.05168,0.011369 -0.08578,0.03514 -0.03411,0.022738 -0.05064,0.055811 -0.0155,0.032039 -0.0155,0.074414 0,0.072347 0.04548,0.1157553 0.04651,0.042375 0.129192,0.042375 0.06718,0 0.124023,-0.034107 0.05788,-0.034107 0.120923,-0.1043866 z"
         id="path2678" />
      <path
         d="m 25.653682,8.030461 q 0,0.00827 -0.0041,0.014469 -0.0041,0.00517 -0.01344,0.0093 -0.0093,0.00413 -0.02584,0.0062 -0.01654,0.00207 -0.04237,0.00207 -0.0248,0 -0.04134,-0.00207 -0.01654,-0.00207 -0.02687,-0.0062 -0.0093,-0.00413 -0.01344,-0.0093 -0.0031,-0.0062 -0.0031,-0.014469 V 7.1002838 q 0,-0.00723 0.0031,-0.013436 0.0041,-0.0062 0.01344,-0.010335 0.01034,-0.00413 0.02687,-0.0062 0.01654,-0.00207 0.04134,-0.00207 0.02584,0 0.04237,0.00207 0.01654,0.00207 0.02584,0.0062 0.0093,0.00413 0.01344,0.010335 0.0041,0.0062 0.0041,0.013436 z m 0.01964,-1.2443704 q 0,0.059945 -0.02274,0.081649 -0.02274,0.021704 -0.08372,0.021704 -0.05995,0 -0.08268,-0.020671 -0.0217,-0.021704 -0.0217,-0.080615 0,-0.059945 0.02274,-0.081649 0.02274,-0.021704 0.08372,-0.021704 0.05994,0 0.08165,0.021704 0.02274,0.020671 0.02274,0.079582 z"
         id="path2680" />
      <path
         d="m 26.452602,7.962248 q 0,0.029972 -0.0041,0.047542 -0.0041,0.01757 -0.0124,0.025838 -0.0083,0.00827 -0.0248,0.015503 -0.01654,0.00723 -0.03824,0.011369 -0.02067,0.00517 -0.04444,0.00827 -0.02377,0.0031 -0.04754,0.0031 -0.07235,0 -0.124024,-0.018604 -0.05168,-0.019637 -0.08475,-0.057878 -0.03307,-0.039274 -0.04858,-0.098185 -0.01447,-0.059945 -0.01447,-0.1405601 V 7.2150056 h -0.130224 q -0.0155,0 -0.02481,-0.016536 -0.0093,-0.016536 -0.0093,-0.053743 0,-0.019637 0.0021,-0.033073 0.0031,-0.013436 0.0072,-0.021704 0.0041,-0.0093 0.01033,-0.012402 0.0072,-0.00413 0.0155,-0.00413 h 0.129191 V 6.8522365 q 0,-0.00723 0.0031,-0.013436 0.0041,-0.0062 0.01344,-0.010335 0.01034,-0.00517 0.02687,-0.00723 0.01654,-0.00207 0.04134,-0.00207 0.02584,0 0.04237,0.00207 0.01654,0.00207 0.02584,0.00723 0.0093,0.00413 0.01344,0.010335 0.0041,0.0062 0.0041,0.013436 V 7.073412 h 0.238745 q 0.0083,0 0.01447,0.00413 0.0062,0.0031 0.01034,0.012402 0.0052,0.00827 0.0072,0.021704 0.0021,0.013436 0.0021,0.033073 0,0.037207 -0.0093,0.053743 Q 26.434,7.215 26.41849,7.215 h -0.23874 v 0.5188322 q 0,0.096118 0.02791,0.1457277 0.02894,0.048576 0.10232,0.048576 0.02377,0 0.04237,-0.00413 0.0186,-0.00517 0.03307,-0.010335 0.01447,-0.00517 0.02481,-0.0093 0.01034,-0.00517 0.0186,-0.00517 0.0052,0 0.0093,0.0031 0.0052,0.00207 0.0072,0.0093 0.0031,0.00723 0.0052,0.019637 0.0021,0.012402 0.0021,0.031006 z"
         id="path2682" />
      <path
         d="m 27.261856,7.777246 q 0,0.071314 -0.02687,0.1271243 -0.02584,0.055811 -0.07441,0.094051 -0.04858,0.038241 -0.115756,0.057878 -0.06718,0.019637 -0.147794,0.019637 -0.04961,0 -0.09509,-0.00827 -0.04444,-0.00723 -0.08062,-0.018603 -0.03514,-0.012402 -0.05994,-0.024805 -0.02481,-0.013436 -0.03617,-0.023771 -0.01137,-0.010335 -0.01654,-0.028939 -0.0052,-0.018603 -0.0052,-0.050643 0,-0.019637 0.0021,-0.033073 0.0021,-0.013436 0.0052,-0.021704 0.0031,-0.00827 0.0083,-0.011369 0.0062,-0.00413 0.01344,-0.00413 0.01137,0 0.03307,0.014469 0.02274,0.013436 0.05478,0.029972 0.03307,0.016536 0.07751,0.031006 0.04444,0.013436 0.102319,0.013436 0.04341,0 0.07855,-0.0093 0.03514,-0.0093 0.06098,-0.026872 0.02584,-0.018603 0.03927,-0.046509 0.01447,-0.027905 0.01447,-0.066146 0,-0.039274 -0.02067,-0.066146 -0.01964,-0.026872 -0.05271,-0.047542 -0.03307,-0.020671 -0.07441,-0.036174 -0.04134,-0.016536 -0.08578,-0.034107 -0.04341,-0.01757 -0.08578,-0.039274 -0.04134,-0.022738 -0.07441,-0.054777 -0.03307,-0.032039 -0.05374,-0.076481 -0.01964,-0.044442 -0.01964,-0.1064536 0,-0.054777 0.02067,-0.1043866 0.0217,-0.050643 0.06408,-0.08785 0.04237,-0.038241 0.10542,-0.060978 0.06408,-0.022738 0.148829,-0.022738 0.03721,0 0.07441,0.0062 0.03721,0.0062 0.06718,0.015503 0.02997,0.0093 0.05064,0.020671 0.0217,0.010335 0.03204,0.018604 0.01137,0.00827 0.01447,0.014469 0.0041,0.0062 0.0052,0.014469 0.0021,0.00723 0.0031,0.018604 0.0021,0.011369 0.0021,0.027905 0,0.01757 -0.0021,0.031006 -0.001,0.012402 -0.0052,0.020671 -0.0031,0.00827 -0.0083,0.012402 -0.0052,0.0031 -0.01137,0.0031 -0.0093,0 -0.02687,-0.011369 -0.01757,-0.011369 -0.04547,-0.023771 -0.02791,-0.013436 -0.06615,-0.024805 -0.03721,-0.011369 -0.08578,-0.011369 -0.04341,0 -0.07648,0.010335 -0.03307,0.0093 -0.05478,0.027905 -0.02067,0.01757 -0.03204,0.042375 -0.01034,0.024805 -0.01034,0.053744 0,0.040308 0.02067,0.068213 0.02067,0.026872 0.05374,0.047542 0.03307,0.020671 0.07545,0.037207 0.04237,0.016536 0.08578,0.034107 0.04444,0.01757 0.08682,0.039274 0.04341,0.021704 0.07648,0.05271 0.03307,0.031006 0.05271,0.074414 0.02067,0.043408 0.02067,0.103353 z"
         id="path2684" />
    </g>
  </g>
</svg>
